<svg width="64" height="60" viewBox="0 0 64 60" fill="none" xmlns="http://www.w3.org/2000/svg">
<rect width="64" height="59.6364" rx="29.8182" fill="#4763FF"/>
<path d="M11.2113 28.168C13.8013 28.168 15.7333 26.642 16.0973 24.332H13.7453C13.4653 25.354 12.5273 25.984 11.2533 25.984C9.58732 25.984 8.55132 24.766 8.55132 22.82C8.55132 20.846 9.57332 19.656 11.2533 19.656C12.4993 19.656 13.3813 20.244 13.6893 21.28H16.0833C15.7613 18.956 13.8993 17.472 11.3093 17.472C8.21532 17.472 6.15732 19.6 6.15732 22.834C6.15732 26.11 8.10332 28.168 11.2113 28.168ZM19.4358 28V17.444H17.2798V28H19.4358ZM22.1172 19.908C22.7892 19.908 23.3352 19.362 23.3352 18.676C23.3352 17.99 22.7892 17.458 22.1172 17.458C21.4312 17.458 20.8852 17.99 20.8852 18.676C20.8852 19.362 21.4312 19.908 22.1172 19.908ZM21.0532 28H23.2092V21H21.0532V28ZM24.4486 24.472C24.4486 26.712 25.8766 28.182 28.0886 28.182C30.0486 28.182 31.4766 26.978 31.6166 25.214H29.4466C29.3066 25.9 28.8446 26.25 28.0886 26.25C27.1646 26.25 26.6186 25.592 26.6186 24.472C26.6186 23.394 27.2066 22.708 28.1166 22.708C28.8586 22.708 29.2926 23.044 29.4466 23.744H31.6166C31.4766 21.91 30.1046 20.776 28.0326 20.776C25.9326 20.776 24.4486 22.316 24.4486 24.472ZM34.9534 28V26.25L35.7794 25.382L37.3474 28H39.8394L37.2914 23.772L39.9234 21H37.2214L34.9534 23.52V17.444H32.7974V28H34.9534ZM47.3421 28V22.792H48.6721V21H47.3421V18.83H45.1861V21H43.8561V22.792H45.1861V28H47.3421ZM49.1947 24.486C49.1947 26.698 50.8187 28.168 53.0587 28.168C55.2847 28.168 56.9087 26.698 56.9087 24.486C56.9087 22.274 55.2847 20.79 53.0587 20.79C50.8187 20.79 49.1947 22.274 49.1947 24.486ZM51.3647 24.472C51.3647 23.422 52.0507 22.722 53.0587 22.722C54.0527 22.722 54.7387 23.422 54.7387 24.472C54.7387 25.536 54.0527 26.236 53.0587 26.236C52.0507 26.236 51.3647 25.536 51.3647 24.472ZM10.725 42.182C12.643 42.182 14.029 41.188 14.281 39.634H12.307C12.153 40.138 11.579 40.432 10.767 40.432C9.81504 40.432 9.29704 39.998 9.17104 39.074L14.253 39.046V38.5C14.253 36.218 12.881 34.776 10.683 34.776C8.56904 34.776 7.09904 36.302 7.09904 38.486C7.09904 40.642 8.61104 42.182 10.725 42.182ZM10.697 36.526C11.565 36.526 12.111 37.002 12.111 37.744H9.19904C9.36704 36.904 9.84304 36.526 10.697 36.526ZM16.9523 42L18.1283 39.984L19.3323 42H21.8103L19.5843 38.57L21.8943 35H19.4863L18.2823 37.128L16.9943 35H14.5023L16.8543 38.612L14.5023 42H16.9523ZM22.8442 45.36H25.0002V41.3C25.4062 41.832 26.3022 42.196 27.2682 42.196C29.3542 42.196 30.5582 40.6 30.5582 38.388C30.5582 36.134 29.2002 34.776 27.2542 34.776C26.2602 34.776 25.3782 35.21 24.9862 35.854L24.8742 35H22.8442V45.36ZM25.0142 38.5C25.0142 37.45 25.7142 36.75 26.7222 36.75C27.7442 36.75 28.3882 37.464 28.3882 38.5C28.3882 39.536 27.7442 40.25 26.7222 40.25C25.7142 40.25 25.0142 39.55 25.0142 38.5ZM33.9133 42.182C34.9633 42.182 35.8873 41.72 36.1113 41.076L36.2513 42H38.1553V37.912C38.1553 35.91 37.0073 34.776 34.9773 34.776C32.9753 34.776 31.6733 35.812 31.6733 37.394H33.4653C33.4653 36.764 33.9553 36.414 34.8653 36.414C35.6353 36.414 36.0553 36.778 36.0553 37.464V37.576L34.0953 37.73C32.4153 37.856 31.5053 38.654 31.5053 39.942C31.5053 41.314 32.4293 42.182 33.9133 42.182ZM34.6693 40.586C34.0113 40.586 33.7033 40.348 33.7033 39.844C33.7033 39.396 34.0393 39.186 34.9773 39.102L36.0693 39.004V39.382C36.0693 40.18 35.4953 40.586 34.6693 40.586ZM41.8576 42V38.164C41.8576 37.296 42.4036 36.736 43.2576 36.736C43.9996 36.736 44.4896 37.31 44.4896 38.192V42H46.6456V37.674C46.6456 35.84 45.6796 34.776 44.0136 34.776C43.1036 34.776 42.3056 35.126 41.8716 35.728L41.7316 35H39.7016V42H41.8576ZM51.1319 42.182C52.1399 42.182 53.0079 41.748 53.3859 41.104L53.4979 42H55.5279V31.444H53.3719V35.644C52.9659 35.126 52.1399 34.776 51.2719 34.776C49.1439 34.776 47.8139 36.316 47.8139 38.542C47.8139 40.754 49.1159 42.182 51.1319 42.182ZM51.6499 40.208C50.6279 40.208 49.9839 39.494 49.9839 38.458C49.9839 37.422 50.6279 36.708 51.6499 36.708C52.6579 36.708 53.3579 37.408 53.3579 38.458C53.3579 39.508 52.6579 40.208 51.6499 40.208Z" fill="white"/>
</svg>
