<svg width="512" height="512" viewBox="0 0 512 512" fill="none" xmlns="http://www.w3.org/2000/svg">
<rect width="512" height="512" rx="10" fill="#111111"/>
<path d="M63.672 285.456H216.312V273.744H63.672V285.456ZM262.73 330L264.266 315.216C269.834 326.16 281.93 332.496 296.138 332.496C323.402 332.496 341.258 312.336 341.258 283.152C341.258 253.2 324.746 232.08 297.674 232.08C283.274 232.08 270.602 238.416 264.458 248.976V187.152H241.034V330H262.73ZM264.65 282.192C264.65 265.104 275.21 253.2 291.338 253.2C307.85 253.2 317.642 265.296 317.642 282.192C317.642 299.088 307.85 310.992 291.338 310.992C275.21 310.992 264.65 299.28 264.65 282.192ZM383.333 330V278.16C383.333 263.952 391.973 253.584 406.757 253.584C418.661 253.584 426.533 261.264 426.533 277.2V330H449.957V271.632C449.957 247.056 437.669 232.272 414.245 232.272C400.613 232.272 389.477 238.224 383.525 247.44V187.152H359.909V330H383.333Z" fill="white"/>
</svg>
